<svg width="147" height="135" fill="none" xmlns="http://www.w3.org/2000/svg"><path opacity=".5" d="M142 60.329L125 53v15.115L142 73V60.329z" fill="#2A94E2"/><path d="M142 60.329L125 53v15.115L142 73V60.329zm-1.535 10.593l-13.93-4.002V55.371l13.93 6.004v9.547z" fill="#000"/><path opacity=".5" d="M142 75.923L125 71v15.894L142 90V75.923z" fill="#2A94E2"/><path d="M142 75.923L125 71v15.894L142 90V75.923zm-1.535 12.021l-13.93-2.548V73.254l13.93 4.032v10.658z" fill="#000"/><path opacity=".5" d="M88 40.276L81 38v19.796L88 60V40.276z" fill="#2A94E2"/><path d="M88 40.276L81 38v19.796L88 60V40.276zm-1.657 17.503l-3.686-1.16V40.242l3.686 1.199v16.337z" fill="#000"/><path opacity=".5" d="M88 105.929V88.867L81 88v18l7-.071z" fill="#2A94E2"/><path d="M88 105.929V88.867L81 88v18l7-.071zm-5.341-16.07l3.686.456v13.988l-3.686.036v-14.48z" fill="#000"/><path opacity=".5" d="M97 68.466L89 67v17.337L97 85V68.466z" fill="#2A94E2"/><path d="M97 68.466L89 67v17.337L97 85V68.466zM95.106 83.32l-4.212-.348V68.901l4.212.771V83.32zM116 49.355L110 47v19.189L116 68V49.355zm-1.827 16.14l-2.346-.709V49.724l2.346.921v14.85zM104 84.394l6 .606V69.363L104 68v16.394zm1.705-14.348l2.59.59v12.568l-2.59-.262V70.047z" fill="#000"/><path opacity=".5" d="M14 58.801V71l44-10.189V46L14 58.801z" fill="#2A94E2"/><path d="M14 58.801V71l44-10.189V46L14 58.801zm42.388.785l-40.78 9.443v-9.075l40.78-11.865v11.498z" fill="#000"/><path opacity=".5" d="M14 90l44-5.224V68l-44 8.466V90z" fill="#2A94E2"/><path d="M14 90l44-5.224V68l-44 8.466V90zm1.61-12.222l40.78-7.847v13.434l-40.78 4.841V77.778z" fill="#000"/><path d="M121.824 43.946V33.573L57.022 0l-38.36 18.163v20.91L0 46.876V60.65l6.51 1.137v53.532h7.16l.012 10.094 55.338 9.565.126.023 24.11-3.531 3.181-.447v-.017l28.82-4.218.692-.102v-14.544l21.051-.595v-56.09l-25.176-11.511zm-64.01-41.72l62.394 32.327v8.654L69.172 19.87l-11.358 4.76V2.227zm-42.53 111.479H8.126V60.431l-6.51-1.138V47.95l18.661-7.805V19.183L56.2 2.175v24.88l12.15-5.092v111.26l-53.053-9.172-.011-10.346zm75.947 16.422v-15.798h3.591v15.283l-1.654.241-1.937.274zm54.154-20.153l-21.052.596v14.719l-27.896 4.086v-16.659h-6.821v17.656l-19.651 2.877V22.009l75.418 34.484v53.481h.002z" fill="#000"/></svg>