<svg width="135" height="138" fill="none" xmlns="http://www.w3.org/2000/svg"><path opacity=".5" d="M14 50h18v19H14V50zm35 0h19v19H49V50zm56 25h17v17h-17V75z" fill="#2A94E2"/><path d="M81.754 2v135H52.683v-17.798c0-.847-.77-1.618-1.615-1.618H31.687c-1.07.036-1.59 1.008-1.615 1.618V137H1V39.315L81.754 2zm10.254 28.213H134V137H92.008V30.213zm12.92 12.944h16.151v16.18h-16.151v-16.18zM13.921 49.63H33.3v19.416H13.92V49.629zm35.532 0h19.38v19.416h-19.38V49.629zm55.475 25.888h16.151v16.18h-16.151v-16.18zm-91.007 9.708H33.3v19.415H13.92V85.225zm35.532 0h19.38v19.415h-19.38V85.225zm55.475 22.651h16.151v16.18h-16.151v-16.18z" stroke="#000" stroke-width="1.8"/></svg>