<svg width="146" height="137" fill="none" xmlns="http://www.w3.org/2000/svg"><path opacity=".5" d="M6 18.61L114.142 1 117 3.317 116.524 20H17.91L6 18.61z" fill="#2A94E2"/><path d="M133.32 103.216v28.345c0 2.39-2.039 4.439-4.479 4.439H5.423C3.04 136 1 133.953 1 131.561V23.937c0-2.449 1.985-4.782 4.366-5.18l107.316-17.7c.342-.057.566-.057.85-.057 1.987.113 3.459 1.707 3.459 3.813v15.423m16.329 82.98h7.257c2.44 0 4.423-2.049 4.423-4.438v-41.32c0-2.447-1.983-4.494-4.423-4.494h-7.257m0 50.252H79.007c-2.436 0-4.422-2.047-4.422-4.438v-41.32c0-2.445 1.986-4.494 4.422-4.494h54.313m0 0V24.677c0-2.448-2.039-4.44-4.479-4.44h-11.85m0 0H2.907m96.57 50.425c-4.141 0-7.486 3.358-7.486 7.456 0 4.153 3.345 7.51 7.485 7.51 4.08 0 7.596-3.357 7.596-7.51-.002-4.098-3.516-7.456-7.596-7.456z" stroke="#000" stroke-width="1.8"/></svg>