<svg width="127" height="135" fill="none" xmlns="http://www.w3.org/2000/svg"><path d="M100.542 0H83.155v15.168H0v9.86h34.018v9.708l-10.735 10.77H18.9v13.651h32.506V45.506H47.02l-10.734-10.77v-9.708h46.869v69.775H66.524V72.051H3.78V135h108.1V94.803h-11.339V25.028H127v-9.86h-26.458V0zm-15.12 2.275h12.852v12.893H85.423V2.275zM49.138 47.781v9.101h-27.97v-9.101h27.97zm-5.443-2.275H26.458l8.618-8.646 8.618 8.646zm65.919 51.573v35.646H6.048v-58.4h58.208V97.08h45.357zm-24.19-2.276V25.028h12.85v69.775h-12.85zm39.309-77.36v5.31H2.268v-5.31h122.464z" fill="#000"/><path opacity=".5" d="M17 101h15V86H17v15z" fill="#2A94E2"/><path d="M31.1 86.9v13.2H17.9V86.9h13.2z" stroke="#000" stroke-width="1.8"/><path opacity=".5" d="M39 101h15V86H39v15z" fill="#2A94E2"/><path d="M53.1 86.9v13.2H39.9V86.9h13.2z" stroke="#000" stroke-width="1.8"/><path opacity=".5" d="M17 123h15v-15H17v15z" fill="#2A94E2"/><path d="M31.1 108.9v13.2H17.9v-13.2h13.2z" stroke="#000" stroke-width="1.8"/><path opacity=".5" d="M39 123h15v-15H39v15z" fill="#2A94E2"/><path d="M53.1 108.9v13.2H39.9v-13.2h13.2z" stroke="#000" stroke-width="1.8"/><path opacity=".5" d="M64 123h15v-15H64v15z" fill="#2A94E2"/><path d="M78.1 108.9v13.2H64.9v-13.2h13.2z" stroke="#000" stroke-width="1.8"/><path opacity=".5" d="M86 123h15v-15H86v15z" fill="#2A94E2"/><path d="M100.1 108.9v13.2H86.9v-13.2h13.2z" stroke="#000" stroke-width="1.8"/><path d="M106 45h10V31h-10v14zm2.308-11.667h5.384v9.334h-5.384v-9.334z" fill="#000"/></svg>