<svg width="149" height="101" fill="none" xmlns="http://www.w3.org/2000/svg"><path opacity=".5" d="M28 54h93v11.5l-4.5 3.5h-84L28 65.5V54z" fill="#2A94E2"/><path d="M141.409 43.646h-14.2a7.8 7.8 0 00-1.595.177l-1.26-29.693C124.051 7.013 117.933 1 110.994 1H37.968C31.03 1 24.911 7.013 24.606 14.13l-1.259 29.69a7.916 7.916 0 00-1.596-.174H7.55C3.693 43.646 1 46.21 1 49.88v33.403c0 3.584 2.69 7.579 6.55 7.579h7.09v8.376c0 .42.339.762.757.762h4.546a.76.76 0 00.758-.761v-8.377h107.598V100h5.304a.76.76 0 00.758-.761v-8.377h7.048c3.884 0 6.591-3.995 6.591-7.58V49.877c0-3.668-2.71-6.23-6.591-6.23zM75.258 2.523h35.736c6.153 0 11.577 5.346 11.845 11.673l1.279 30.139c-2.081.988-3.396 2.985-3.396 5.544v3.682a3.73 3.73 0 00-2.264-.776h-43.2V2.523zm0 51.785h43.2a2.272 2.272 0 012.264 2.275v5.744c0 2.925-2.722 5.688-5.6 5.688H75.258V54.308zm-1.516 13.707H33.84c-2.86 0-5.562-2.763-5.562-5.687v-5.743a2.272 2.272 0 012.265-2.277h43.2v13.707zM26.12 14.195c.272-6.326 5.697-11.672 11.848-11.672h35.774v50.262h-43.2c-.853 0-1.63.295-2.264.776V49.88c0-2.568-1.332-4.57-3.437-5.554l1.28-30.13zm-6.934 84.282h-3.031v-7.615h3.03v7.615zm113.659 0h-3.031v-7.615h3.031v7.615zm13.64-15.196c0 2.859-2.171 6.057-5.076 6.057H7.549c-2.966 0-5.034-3.192-5.034-6.057V49.88c0-2.817 2.024-4.71 5.035-4.71h14.2c2.998 0 5.012 1.893 5.012 4.71v12.448c0 3.774 3.373 7.212 7.077 7.212h81.282c3.724 0 7.115-3.438 7.115-7.21V49.88c0-2.818 1.997-4.71 4.972-4.71h14.2c3.036 0 5.076 1.892 5.076 4.709V83.28z" fill="#000" stroke="#000" stroke-width=".5"/><path d="M50.5 29c1.38 0 2.5-.895 2.5-2s-1.12-2-2.5-2-2.5.895-2.5 2 1.12 2 2.5 2zM99 29a2 2 0 100-4 2 2 0 000 4z" fill="#000" stroke="#000" stroke-width=".5"/></svg>