<svg width="111" height="137" fill="none" xmlns="http://www.w3.org/2000/svg"><path d="M22.95 74.339L16.438 51.77l-1.487.43 6.513 22.568 1.488-.43zm73.287-22.141l-1.487-.429-6.514 22.569 1.488.429 6.513-22.569z" fill="#000" stroke="#000" stroke-width=".5"/><path d="M105.992 104H5.124a.775.775 0 01-.77-.779V83.11L1.01 62.1a.781.781 0 01.315-.758L15.288 51.34c1.306-8.326 11.354-48.043 11.787-49.754a.771.771 0 01.933-.562c.092.023 9.387 2.33 25.598 2.33 9.55 0 19.593-.789 29.841-2.344a.768.768 0 01.86.577c.434 1.708 10.468 41.366 11.781 49.736l13.561 8.917a.783.783 0 01.342.773l-3.24 21.13.011 21.078a.791.791 0 01-.225.552.762.762 0 01-.545.227zM5.894 102.443h99.328v-20.42l3.171-20.753-13.435-8.834a.786.786 0 01-.343-.542c-.98-6.926-10.244-43.756-11.63-49.242C72.9 4.152 63.02 4.91 53.606 4.912c-13.805 0-22.688-1.663-25.224-2.207-1.428 5.66-10.64 42.287-11.619 49.19a.785.785 0 01-.317.526L2.608 62.335l3.279 20.653.007 19.455z" fill="#000" stroke="#000" stroke-width=".5"/><path d="M40.5 29a2.503 2.503 0 01-2.5-2.5c0-1.378 1.121-2.5 2.5-2.5s2.5 1.122 2.5 2.5-1.121 2.5-2.5 2.5zm0-3.523a1.024 1.024 0 000 2.045 1.023 1.023 0 000-2.045zM70.5 29c-1.38 0-2.5-1.122-2.5-2.5s1.122-2.5 2.5-2.5c1.38 0 2.5 1.122 2.5 2.5S71.878 29 70.5 29zm0-3.523a1.024 1.024 0 000 2.045 1.024 1.024 0 000-2.044zM40.5 47a2.503 2.503 0 01-2.5-2.5c0-1.379 1.121-2.5 2.5-2.5s2.5 1.121 2.5 2.5-1.121 2.5-2.5 2.5zm0-3.523c-.564 0-1.023.46-1.023 1.023s.46 1.023 1.023 1.023 1.023-.46 1.023-1.023-.459-1.023-1.023-1.023zM70.5 47c-1.38 0-2.5-1.121-2.5-2.5s1.122-2.5 2.5-2.5c1.38 0 2.5 1.121 2.5 2.5S71.878 47 70.5 47zm0-3.523a1.024 1.024 0 00.001 2.046 1.024 1.024 0 000-2.046zM14.363 136c-1.409 0-2.106-2.231-2.34-3.189a.844.844 0 01-.017-.298l3.663-29.818a.779.779 0 01.762-.695l5.8.002c.23 0 .448.105.594.289a.818.818 0 01.161.658c-.038.205-3.892 20.728-5.866 28.572-.792 3.139-1.617 4.479-2.757 4.479zm-.816-3.439c.21.779.572 1.577.813 1.811.17-.165.66-.822 1.27-3.25 1.72-6.83 4.884-23.392 5.667-27.527h-4.191l-3.559 28.966zM96.637 136c-1.141 0-1.965-1.34-2.755-4.478-1.975-7.845-5.83-28.369-5.868-28.574a.826.826 0 01.161-.659.758.758 0 01.593-.289h5.797c.387 0 .713.299.762.695l3.667 29.82a.81.81 0 01-.019.297c-.233.957-.93 3.188-2.338 3.188zm-6.936-32.41c.783 4.137 3.946 20.701 5.666 27.53.611 2.428 1.1 3.083 1.27 3.25.241-.232.602-1.03.811-1.811l-3.56-28.972-4.187.003z" fill="#000" stroke="#000" stroke-width=".5"/><g opacity=".5"><path d="M91.977 88H18.02C14.15 88 11 84.633 11 80.499 11 76.364 14.15 73 18.02 73h73.956C95.849 73 99 76.365 99 80.499 99 84.635 95.85 88 91.977 88z" fill="#2A94E2"/><path d="M18.02 74.543h73.956c3.02 0 5.475 2.67 5.475 5.956 0 3.286-2.456 5.958-5.474 5.958H18.02M91.977 88H18.02C14.15 88 11 84.633 11 80.499 11 76.364 14.15 73 18.02 73h73.956C95.849 73 99 76.365 99 80.499 99 84.635 95.85 88 91.977 88z" stroke="#000" stroke-width=".5"/></g><path d="M91.977 88H18.02C14.15 88 11 84.633 11 80.499 11 76.364 14.15 73 18.02 73h73.956C95.849 73 99 76.365 99 80.499 99 84.635 95.85 88 91.977 88zM18.02 74.543c-3.017 0-5.47 2.67-5.47 5.956 0 3.286 2.453 5.958 5.47 5.958h73.957c3.018 0 5.474-2.672 5.474-5.958 0-3.285-2.456-5.956-5.475-5.956H18.02z" fill="#000" stroke="#000" stroke-width=".5"/><path d="M106.222 88H4.778c-.43 0-.778-.224-.778-.5s.348-.5.778-.5h101.444c.43 0 .778.224.778.5s-.348.5-.778.5z" fill="#000" stroke="#000" stroke-width=".5"/><path d="M105.806 104c-.445 0-.806-.342-.806-.763v-20.77l3.398-20.822c.068-.417.49-.699.919-.636.44.064.741.454.674.87l-3.39 20.705.009 20.653c.002.421-.359.763-.804.763z" fill="#000" stroke="#000" stroke-width=".5"/></svg>