<svg width="147" height="128" fill="none" xmlns="http://www.w3.org/2000/svg"><path opacity=".5" d="M45 81.5c0 2.17-1 5-1 5S30.357 92 23 92C10.85 92 1 87.299 1 81.5S10.85 71 23 71s22 5 22 10.5zm6-18c0 2.17 1 5 1 5S66.644 74 74 74c12.15 0 22-4.701 22-10.5S86.15 53 74 53s-23 5-23 10.5zm51-18c0 2.17 1 5 1 5s14.643 5.5 22 5.5c12.15 0 22-4.701 22-10.5S135.15 35 123 35s-21 5-21 10.5z" fill="#2A94E2"/><path d="M101.9 45.68c0-2.459 2.057-4.9 6.087-6.777 3.971-1.85 9.583-3.003 16.013-3.003 6.436 0 12.049 1.1 16.018 2.922 4.017 1.844 6.082 4.283 6.082 6.857v71.642c0 2.457-2.057 4.899-6.087 6.776-3.971 1.85-9.583 3.003-16.013 3.003-6.43 0-12.042-1.153-16.013-3.003-4.03-1.877-6.087-4.319-6.087-6.776V45.679zm-51 17.113c0-2.485 2.104-4.956 6.227-6.856 4.061-1.871 9.8-3.037 16.373-3.037s12.312 1.166 16.373 3.037c4.123 1.9 6.227 4.371 6.227 6.856v54.414c0 2.485-2.104 4.956-6.227 6.856-4.061 1.871-9.8 3.037-16.373 3.037s-12.312-1.166-16.373-3.037c-4.123-1.9-6.227-4.371-6.227-6.856V62.793zm-50 18.04c0-2.508 2.067-4.986 6.092-6.888C10.96 72.069 16.572 70.9 23 70.9c6.547 0 12.157 1.115 16.094 2.962 3.975 1.863 6.006 4.337 6.006 6.97v36.335c0 2.508-2.067 4.986-6.092 6.888-3.969 1.876-9.58 3.045-16.008 3.045-6.428 0-12.04-1.169-16.008-3.045C2.967 122.153.9 119.675.9 117.167V80.833zM23 60l32-32h41l27-27m0 0v14m0-14h-14" stroke="#000" stroke-width="1.8"/></svg>