<svg width="103" height="137" fill="none" xmlns="http://www.w3.org/2000/svg"><circle opacity=".5" cx="51" cy="57" r="35" fill="#2A94E2"/><path d="M17 64a36.278 36.278 0 007 15m55 0a36.26 36.26 0 007-15M24 79c6.428 8.518 16.346 14 27.5 14 11.155 0 21.073-5.482 27.5-14m0-44c-6.427-8.517-16.345-14-27.5-14-11.153 0-21.07 5.481-27.5 14m62 15c-1.163-5.585-3.613-10.682-7-15m-55 0a36.274 36.274 0 00-7 15m0 0a25.42 25.42 0 00-1 6.998c0 2.402.352 4.743 1 7.002m69 0c.65-2.259 1-4.6 1-7.002 0-2.4-.35-4.74-1-6.998" stroke="#000" stroke-width="1.8" stroke-miterlimit="10"/><path d="M51.5 68C71.106 68 87 62.851 87 56.5S71.106 45 51.5 45 16 50.149 16 56.5 31.894 68 51.5 68zm.5-47v36m-34 53h67m-58 12h49" stroke="#000" stroke-width="1.8" stroke-miterlimit="10"/><path d="M94.5 1H1v135h101V8.476L94.5 1z" stroke="#000" stroke-width="1.8" stroke-miterlimit="10"/></svg>