<svg width="141" height="110" fill="none" xmlns="http://www.w3.org/2000/svg"><path d="M47 1.955V86h4V0l-4 1.955z" fill="url(#paint0_linear)"/><path d="M41 86h3V4l-3 1.947V86z" fill="url(#paint1_linear)"/><path d="M36 86h3V8l-3 1.94V86z" fill="url(#paint2_linear)"/><path d="M30 86h3V12h-.1L30 13.93V86z" fill="url(#paint3_linear)"/><path d="M24 86h3V15h-.1L24 16.951V86z" fill="url(#paint4_linear)"/><path d="M17 86h4V18l-4 2.077V86z" fill="url(#paint5_linear)"/><path d="M12 86h3V22l-3 2.068V86z" fill="url(#paint6_linear)"/><path d="M6 86h4V26l-4 2.058V86z" fill="url(#paint7_linear)"/><path d="M64.206 28h6.81c.928 0 1.754.108 2.476.43.722.215 1.238.645 1.754 1.075.413.43.825.968 1.032 1.613.206.645.31 1.29.31 2.043 0 .86-.207 1.613-.62 2.366-.412.753-1.032 1.398-2.063 1.935a3.859 3.859 0 011.547.968c.413.43.723.86.929 1.29.206.43.413.968.516 1.506.103.537.103.968.103 1.29 0 .86-.103 1.506-.413 2.258a5.386 5.386 0 01-1.135 1.72c-.516.43-1.031.86-1.754 1.076-.619.215-1.34.43-2.063.43H64V28h.206zm10.008 5.269c0-.968-.31-1.828-.825-2.473-.62-.645-1.548-.968-2.889-.968h-4.024v6.667H70.5c1.238 0 2.167-.323 2.786-.86.619-.538.928-1.29.928-2.366zm.62 9.032c0-.43-.104-.968-.207-1.398-.206-.43-.413-.86-.722-1.183a3.707 3.707 0 00-1.238-.86 4.127 4.127 0 00-1.651-.322h-4.437v7.527h4.437c.722 0 1.238-.108 1.754-.323.516-.215.928-.43 1.135-.86.31-.323.516-.753.619-1.183.206-.43.31-.968.31-1.398zM84 48h-3V27h3v21zm7-18.444c0 .444-.103.777-.414 1.11-.31.334-.62.445-1.138.445-.413 0-.724-.111-1.034-.444-.31-.334-.414-.667-.414-1.111 0-.445.103-.89.414-1.112.31-.333.62-.444 1.034-.444.414 0 .828.111 1.138.444.31.334.414.667.414 1.112zM88.31 48V33.333h2.276V48H88.31zm9.78-18v3.6h4.092v1.745h-4.091v8.51c0 .654.102 1.2.409 1.636.204.436.716.654 1.534.654.614 0 1.432-.218 2.557-.545l.409 1.636c-.511.219-1.023.437-1.636.546-.614.109-1.125.218-1.739.218-2.454 0-3.682-1.2-3.682-3.49v-9.274H94v-1.309l2.046-.654.715-3.164 1.33-.109zm10.224 16.303H117V48h-12v-1.485l8.457-10.606-.114-.212h-7.429V34h10.743v1.485l-8.343 10.606v.212zM64 73.892V54h11.586v1.935h-9.31v6.56h7.862v1.828h-7.862v7.742H76V74H64v-.108zm16.889-2.569a8.822 8.822 0 002.555.721c.778.103 1.445.206 2 .206.445 0 .89 0 1.334-.103.444-.103.778-.206 1.11-.412.334-.206.556-.412.668-.617.222-.31.222-.618.222-1.03 0-.309-.111-.617-.222-.926-.223-.206-.445-.515-.667-.618-.333-.206-.667-.309-1-.412-.333-.103-.778-.309-1.222-.411-.667-.206-1.223-.412-1.89-.618-.555-.206-1.11-.412-1.555-.72a5.093 5.093 0 01-1.11-1.03c-.334-.412-.445-.926-.445-1.544s.11-1.235.444-1.647c.333-.412.667-.927 1.111-1.236.445-.308 1-.514 1.667-.72C84.556 60.103 85.222 60 86 60c.333 0 .667 0 1 .103.333 0 .778.103 1.111.206.445.103.778.206 1.111.309.334.103.778.308 1 .411l-.777 1.544c-.778-.308-1.445-.514-2-.617-.556-.103-1.112-.103-1.667-.103-.334 0-.778 0-1.111.103-.334.103-.667.206-.89.309l-.666.617c-.222.31-.222.618-.222.927 0 .309.111.514.333.72.222.206.445.412.778.618.333.206.667.309 1 .412l1 .309c.667.206 1.222.411 1.778.617.555.206 1.11.412 1.666.72.445.31.89.722 1.112 1.133.333.412.444 1.03.444 1.75s-.111 1.236-.444 1.75c-.334.515-.667.927-1.223 1.236-.555.308-1.11.514-1.777.72a14.93 14.93 0 01-2.334.206c-.444 0-.889 0-1.333-.103-.445 0-.889-.103-1.445-.206l-1.333-.309c-.444-.103-.778-.309-1.111-.411l.889-1.648zM97.146 57v3.4h4.045v1.648h-4.045v8.037c0 .618.101 1.133.405 1.545.202.412.707.619 1.516.619.607 0 1.416-.207 2.529-.516L102 73.28c-.506.206-1.011.412-1.618.515-.607.103-1.112.206-1.72.206-2.426 0-3.64-1.133-3.64-3.297v-8.758H93V60.71l2.022-.618.708-2.988L97.146 57zm17.743 15.044h2l.111 1.338c-.333.206-.778.31-1.222.412-.445.103-.889.103-1.334.103-.555 0-1-.103-1.333-.309-.333-.206-.444-.72-.555-1.338-.556.412-1.112.823-1.667 1.03-.556.205-1 .411-1.445.514-.444.103-.777.206-1.222.206h-.889c-.889 0-1.555-.103-2.111-.412-.555-.309-1-.617-1.333-.926-.333-.412-.556-.824-.667-1.236-.111-.411-.222-.823-.222-1.235 0-1.235.444-2.162 1.333-2.882.889-.72 2.334-1.132 4.223-1.236l3.777-.205v-.824c0-1.132-.222-1.956-.666-2.367-.445-.412-1.223-.721-2.445-.721-.666 0-1.444.103-2.222.206s-1.556.309-2.333.514l-.334-1.544c.889-.308 1.778-.617 2.778-.823 1-.206 2-.309 2.889-.309 1.556 0 2.778.309 3.667 1.03.889.617 1.333 1.852 1.333 3.5v7.514h-.111zm-6.111-4.53c-1 0-1.778.31-2.222.721-.445.412-.667 1.03-.667 1.647 0 .824.222 1.339.667 1.75.444.412 1.111.618 2.111.618.666 0 1.333-.103 2-.412a7.564 7.564 0 002-1.338v-3.191l-3.889.206zM122.091 57v3.4h4.091v1.648h-4.091v8.037c0 .618.102 1.133.409 1.545.205.412.716.619 1.534.619.614 0 1.432-.207 2.557-.516L127 73.28c-.511.206-1.023.412-1.636.515-.614.103-1.125.206-1.739.206-2.455 0-3.682-1.133-3.682-3.297v-8.758H118V60.71l2.045-.618.716-2.988 1.33-.103zm13.179 3c.973 0 1.73.109 2.379.435.648.217 1.189.543 1.621.978.433.435.757.87.973 1.413.216.544.433.978.541 1.522.108.543.216.978.216 1.413v2.282h-9.514c0 .653.109 1.305.217 1.957.108.652.324 1.087.648 1.63.325.435.757.87 1.298 1.087.54.326 1.189.435 1.946.435.864 0 1.621-.109 2.27-.217.649-.218 1.405-.435 2.27-.761l.541 1.522c-.865.434-1.73.76-2.595.978-.865.217-1.73.326-2.703.326-1.297 0-2.27-.217-3.135-.543-.865-.435-1.513-.87-1.946-1.522-.432-.652-.756-1.413-.973-2.283a11.921 11.921 0 01-.324-2.826c0-.435 0-.87.108-1.413l.324-1.63.649-1.63c.324-.544.649-.98 1.189-1.414.433-.435.973-.76 1.73-.978.649-.544 1.405-.761 2.27-.761zm.108 1.848c-.648 0-1.297.108-1.729.435a3.387 3.387 0 00-1.19.978c-.324.435-.54.978-.648 1.522-.108.543-.216 1.195-.325 1.739h7.244c0-.652-.108-1.305-.216-1.848a6.355 6.355 0 00-.541-1.522c-.216-.435-.649-.76-1.081-.978-.324-.218-.865-.326-1.514-.326z" fill="#fff"/><path d="M0 110h3V32.972L0 31v79z" fill="url(#paint8_linear)"/><path d="M6 35v75h4V36.965L6 35z" fill="url(#paint9_linear)"/><path d="M12 39v71h3V40.957L12 39z" fill="url(#paint10_linear)"/><path d="M17 42v68h4V43.977L17 42z" fill="url(#paint11_linear)"/><path d="M24 46v64h3V47.97L24.1 46H24z" fill="url(#paint12_linear)"/><path d="M30 110h3V51.96L30 50v60z" fill="url(#paint13_linear)"/><path d="M36 110h3V55.95L36 54v56z" fill="url(#paint14_linear)"/><path d="M41 58v52h3V59.938L41 58z" fill="url(#paint15_linear)"/><path d="M47 61v49h4V62.964L47 61z" fill="url(#paint16_linear)"/><defs><linearGradient id="paint0_linear" x1="49.016" y1="46.359" x2="49.016" y2="-18.918" gradientUnits="userSpaceOnUse"><stop stop-color="#fff" stop-opacity="0"/><stop offset=".115" stop-color="#0670EB" stop-opacity=".115"/><stop offset=".287" stop-color="#0670EB" stop-opacity=".287"/><stop offset=".454" stop-color="#0670EB" stop-opacity=".454"/><stop offset=".613" stop-color="#0670EB" stop-opacity=".613"/><stop offset=".761" stop-color="#0670EB" stop-opacity=".761"/><stop offset=".894" stop-color="#0670EB" stop-opacity=".894"/><stop offset="1" stop-color="#0670EB"/></linearGradient><linearGradient id="paint1_linear" x1="42.512" y1="48.203" x2="42.512" y2="-14.038" gradientUnits="userSpaceOnUse"><stop stop-color="#fff" stop-opacity="0"/><stop offset=".115" stop-color="#0670EB" stop-opacity=".115"/><stop offset=".287" stop-color="#0670EB" stop-opacity=".287"/><stop offset=".454" stop-color="#0670EB" stop-opacity=".454"/><stop offset=".613" stop-color="#0670EB" stop-opacity=".613"/><stop offset=".761" stop-color="#0670EB" stop-opacity=".761"/><stop offset=".894" stop-color="#0670EB" stop-opacity=".894"/><stop offset="1" stop-color="#0670EB"/></linearGradient><linearGradient id="paint2_linear" x1="37.512" y1="50.047" x2="37.512" y2="-9.158" gradientUnits="userSpaceOnUse"><stop stop-color="#fff" stop-opacity="0"/><stop offset=".115" stop-color="#0670EB" stop-opacity=".115"/><stop offset=".287" stop-color="#0670EB" stop-opacity=".287"/><stop offset=".454" stop-color="#0670EB" stop-opacity=".454"/><stop offset=".613" stop-color="#0670EB" stop-opacity=".613"/><stop offset=".761" stop-color="#0670EB" stop-opacity=".761"/><stop offset=".894" stop-color="#0670EB" stop-opacity=".894"/><stop offset="1" stop-color="#0670EB"/></linearGradient><linearGradient id="paint3_linear" x1="31.512" y1="51.891" x2="31.512" y2="-4.278" gradientUnits="userSpaceOnUse"><stop stop-color="#fff" stop-opacity="0"/><stop offset=".115" stop-color="#0670EB" stop-opacity=".115"/><stop offset=".287" stop-color="#0670EB" stop-opacity=".287"/><stop offset=".454" stop-color="#0670EB" stop-opacity=".454"/><stop offset=".613" stop-color="#0670EB" stop-opacity=".613"/><stop offset=".761" stop-color="#0670EB" stop-opacity=".761"/><stop offset=".894" stop-color="#0670EB" stop-opacity=".894"/><stop offset="1" stop-color="#0670EB"/></linearGradient><linearGradient id="paint4_linear" x1="25.512" y1="53.273" x2="25.512" y2="-.618" gradientUnits="userSpaceOnUse"><stop stop-color="#fff" stop-opacity="0"/><stop offset=".115" stop-color="#0670EB" stop-opacity=".115"/><stop offset=".287" stop-color="#0670EB" stop-opacity=".287"/><stop offset=".454" stop-color="#0670EB" stop-opacity=".454"/><stop offset=".613" stop-color="#0670EB" stop-opacity=".613"/><stop offset=".761" stop-color="#0670EB" stop-opacity=".761"/><stop offset=".894" stop-color="#0670EB" stop-opacity=".894"/><stop offset="1" stop-color="#0670EB"/></linearGradient><linearGradient id="paint5_linear" x1="19.016" y1="54.656" x2="19.016" y2="3.042" gradientUnits="userSpaceOnUse"><stop stop-color="#fff" stop-opacity="0"/><stop offset=".115" stop-color="#0670EB" stop-opacity=".115"/><stop offset=".287" stop-color="#0670EB" stop-opacity=".287"/><stop offset=".454" stop-color="#0670EB" stop-opacity=".454"/><stop offset=".613" stop-color="#0670EB" stop-opacity=".613"/><stop offset=".761" stop-color="#0670EB" stop-opacity=".761"/><stop offset=".894" stop-color="#0670EB" stop-opacity=".894"/><stop offset="1" stop-color="#0670EB"/></linearGradient><linearGradient id="paint6_linear" x1="13.512" y1="56.5" x2="13.512" y2="7.922" gradientUnits="userSpaceOnUse"><stop stop-color="#fff" stop-opacity="0"/><stop offset=".115" stop-color="#0670EB" stop-opacity=".115"/><stop offset=".287" stop-color="#0670EB" stop-opacity=".287"/><stop offset=".454" stop-color="#0670EB" stop-opacity=".454"/><stop offset=".613" stop-color="#0670EB" stop-opacity=".613"/><stop offset=".761" stop-color="#0670EB" stop-opacity=".761"/><stop offset=".894" stop-color="#0670EB" stop-opacity=".894"/><stop offset="1" stop-color="#0670EB"/></linearGradient><linearGradient id="paint7_linear" x1="8.016" y1="58.344" x2="8.016" y2="12.802" gradientUnits="userSpaceOnUse"><stop stop-color="#fff" stop-opacity="0"/><stop offset=".115" stop-color="#0670EB" stop-opacity=".115"/><stop offset=".287" stop-color="#0670EB" stop-opacity=".287"/><stop offset=".454" stop-color="#0670EB" stop-opacity=".454"/><stop offset=".613" stop-color="#0670EB" stop-opacity=".613"/><stop offset=".761" stop-color="#0670EB" stop-opacity=".761"/><stop offset=".894" stop-color="#0670EB" stop-opacity=".894"/><stop offset="1" stop-color="#0670EB"/></linearGradient><linearGradient id="paint8_linear" x1="1.478" y1="103.399" x2="1.478" y2="34.848" gradientUnits="userSpaceOnUse"><stop stop-color="#fff" stop-opacity="0"/><stop offset=".292" stop-color="#fff" stop-opacity=".292"/><stop offset=".632" stop-color="#fff" stop-opacity=".632"/><stop offset=".877" stop-color="#fff" stop-opacity=".877"/><stop offset="1" stop-color="#fff"/></linearGradient><linearGradient id="paint9_linear" x1="7.97" y1="103.733" x2="7.97" y2="38.653" gradientUnits="userSpaceOnUse"><stop stop-color="#fff" stop-opacity="0"/><stop offset=".292" stop-color="#fff" stop-opacity=".292"/><stop offset=".632" stop-color="#fff" stop-opacity=".632"/><stop offset=".877" stop-color="#fff" stop-opacity=".877"/><stop offset="1" stop-color="#fff"/></linearGradient><linearGradient id="paint10_linear" x1="13.478" y1="104.067" x2="13.478" y2="42.458" gradientUnits="userSpaceOnUse"><stop stop-color="#fff" stop-opacity="0"/><stop offset=".292" stop-color="#fff" stop-opacity=".292"/><stop offset=".632" stop-color="#fff" stop-opacity=".632"/><stop offset=".877" stop-color="#fff" stop-opacity=".877"/><stop offset="1" stop-color="#fff"/></linearGradient><linearGradient id="paint11_linear" x1="18.97" y1="104.318" x2="18.97" y2="45.312" gradientUnits="userSpaceOnUse"><stop stop-color="#fff" stop-opacity="0"/><stop offset=".292" stop-color="#fff" stop-opacity=".292"/><stop offset=".632" stop-color="#fff" stop-opacity=".632"/><stop offset=".877" stop-color="#fff" stop-opacity=".877"/><stop offset="1" stop-color="#fff"/></linearGradient><linearGradient id="paint12_linear" x1="25.478" y1="104.652" x2="25.478" y2="49.117" gradientUnits="userSpaceOnUse"><stop stop-color="#fff" stop-opacity="0"/><stop offset=".292" stop-color="#fff" stop-opacity=".292"/><stop offset=".632" stop-color="#fff" stop-opacity=".632"/><stop offset=".877" stop-color="#fff" stop-opacity=".877"/><stop offset="1" stop-color="#fff"/></linearGradient><linearGradient id="paint13_linear" x1="31.478" y1="104.986" x2="31.478" y2="52.922" gradientUnits="userSpaceOnUse"><stop stop-color="#fff" stop-opacity="0"/><stop offset=".292" stop-color="#fff" stop-opacity=".292"/><stop offset=".632" stop-color="#fff" stop-opacity=".632"/><stop offset=".877" stop-color="#fff" stop-opacity=".877"/><stop offset="1" stop-color="#fff"/></linearGradient><linearGradient id="paint14_linear" x1="37.478" y1="105.32" x2="37.478" y2="56.728" gradientUnits="userSpaceOnUse"><stop stop-color="#fff" stop-opacity="0"/><stop offset=".292" stop-color="#fff" stop-opacity=".292"/><stop offset=".632" stop-color="#fff" stop-opacity=".632"/><stop offset=".877" stop-color="#fff" stop-opacity=".877"/><stop offset="1" stop-color="#fff"/></linearGradient><linearGradient id="paint15_linear" x1="42.478" y1="105.655" x2="42.478" y2="60.533" gradientUnits="userSpaceOnUse"><stop stop-color="#fff" stop-opacity="0"/><stop offset=".292" stop-color="#fff" stop-opacity=".292"/><stop offset=".632" stop-color="#fff" stop-opacity=".632"/><stop offset=".877" stop-color="#fff" stop-opacity=".877"/><stop offset="1" stop-color="#fff"/></linearGradient><linearGradient id="paint16_linear" x1="48.97" y1="105.905" x2="48.97" y2="63.387" gradientUnits="userSpaceOnUse"><stop stop-color="#fff" stop-opacity="0"/><stop offset=".292" stop-color="#fff" stop-opacity=".292"/><stop offset=".632" stop-color="#fff" stop-opacity=".632"/><stop offset=".877" stop-color="#fff" stop-opacity=".877"/><stop offset="1" stop-color="#fff"/></linearGradient></defs></svg>